<svg width="800" height="800" version="1.1" xmlns="http://www.w3.org/2000/svg" stroke="orange" stroke-width="5"> <defs> <linearGradient id="gradient" x1="0" x2="0" y1="0" y2="1"> <stop offset="0%" stop-color="red"></stop> <stop offset="100%" stop-color="blue"></stop></linearGradient></defs> <rect width="500" height="500" x="100" y="100" id="rec1" x1="0" x2="0" y1="0" y2="1" fill="url(#gradient)" stroke-width="5"></rect> <circle cx="500" cy="500" r="100" id="circle1" stroke-width="5"></circle> <ellipse cx="100" cy="100" rx="50" ry="90" id="ellipse1" stroke="red" stroke-width="5"></ellipse> <line x1="100" x2="50" y1="190" y2="100" stroke="yellow" id="line1" stroke-width="5"></line> <polyline points="200 100, 500 450, 80 100" id="poly1" stroke="green" stroke-width="5"></polyline> <polygon points="100 100, 200 150, 150 90" id="gon1" fill="red" stroke="blue" stroke-width="5"></polygon> <path d="M 200 100 100 200 0 100" fill="green" stroke="black" stroke-width="5"></path> <path d="m 300 300 H 400 v 100" fill="white" stroke="brown" stroke-width="5"></path> <path d="m 600 200 l 50 0 0 50 -50 0 0 -50" fill="yellow" stroke="blue" stroke-width="5"></path> <path d="M 400 200 c 50 0 100 -50 100 100 0 0 -50 100 -100 100" fill-opacity="0.1" fill="white" stroke="black" stroke-width="5"></path> <path d="M 300 100 s 25 50 50 50 25 -50 50 -50 25 50 50 50 25 -50 50 -50" fill-opacity="0" stroke="black" stroke-width="5"></path></svg>